<svg
	width="16px"
	height="16px"
	viewBox="60 40 370 370"
	xmlns="http://www.w3.org/2000/svg"
	baseProfile="full"
	version="1.1" >
	<path fill="black" d="M165.574,358.967h-26.258c0-22.861,13.36-42.599,32.698-51.843c-6.237,9.188-9.883,20.277-9.883,32.216
		C162.131,346.234,163.348,352.842,165.574,358.967z M310.524,358.967h-26.26c0-22.861,13.36-42.599,32.699-51.843
		c-6.235,9.188-9.884,20.277-9.884,32.216C307.08,346.234,308.298,352.842,310.524,358.967z M385.389,343.154
		c-6.966-23.87-28.632-41.616-54.753-41.616c-31.716,0-57.43,25.712-57.434,57.429h-29.96c-0.004-31.717-25.715-57.429-57.433-57.429
		c-31.717,0-57.432,25.712-57.432,57.429H104.08c-1.393-8.143-2.128-16.509-2.128-25.049c0-33.09,10.9-63.638,29.299-88.246
		c-12.548-9.293-22.241-22.651-26.828-38.854c-9.754-34.443,10.241-70.218,44.675-79.967c8.17-2.313,13.335-10.794,11.022-18.962
		c-2.314-8.17-11.218-12.911-19.387-10.598c-5.857,1.657-11.949-1.744-13.606-7.604c-1.658-5.857,1.741-11.946,7.603-13.603
		c19.89-5.632,40.553,5.904,46.186,25.8c5.632,19.891-5.915,40.551-25.81,46.183c-17.219,4.873-27.216,22.755-22.341,39.976
		c3.909,13.81,13.717,24.329,25.915,29.615c25.026-19.567,56.532-31.229,90.763-31.229c26.733,0,51.806,7.111,73.429,19.546
		c1.705-16.427,11.091-30.866,24.908-38.603c0.378,1.531,0.699,3.094,0.944,4.685c1.797,11.69-0.423,23.014-5.549,32.526
		c3.046-1.161,6.239-2.049,9.58-2.562c11.642-1.79,22.977,0.874,32.399,6.764c-6.881,6.713-15.739,11.39-25.824,12.943
		c-4.802,0.737-9.551,0.706-14.136,0.014c31.663,27.052,51.739,67.266,51.739,112.176c0,3.003-0.088,6.006-0.268,8.964
		c-0.142,3.366-2.147,5.555-5.136,5.709C388.54,348.744,386.793,346.881,385.389,343.154z M340.633,260.09
		c0-5.807-4.709-10.517-10.513-10.517c-5.81,0-10.518,4.71-10.518,10.517s4.708,10.516,10.518,10.516
		C335.924,270.605,340.633,265.896,340.633,260.09z" />
</svg>

